/* XPM */
static char * collectible_xpm[] = {
"50 50 10 1",
" 	c #40901E",
".	c #408F1E",
"+	c #000000",
"@	c #FFFFFF",
"#	c #F5F5F5",
"$	c #FCFCFC",
"%	c #F7F7F7",
"&	c #FDFDFD",
"*	c #FAFAFA",
"=	c #3F8F1E",
"                                                  ",
"                                                  ",
"                                                  ",
"                                                  ",
"                                                  ",
"                                                  ",
"                                                  ",
"                                                  ",
"                                                  ",
"                                                  ",
"                                                  ",
"                                                  ",
"                                                  ",
"                                                  ",
"                                                  ",
"                                                  ",
"                                                  ",
"                                                  ",
"                                                  ",
"                                                  ",
"                            .                     ",
"               ++            ++                   ",
"              +@@+          +@@+                  ",
"              +@@@++++++++++@#$+                  ",
"              +@@%&%&@@@@@@@$$@+                  ",
"               +@%&%&@@**@@@#$+                   ",
"              +@**@@@@@**@@@@%&+                  ",
"              +@**++++++++++@%&+                  ",
"              +@@+       =  +@@+                  ",
"               ++.           ++                   ",
"                                                  ",
"                                                  ",
"                                                  ",
"                                                  ",
"                                                  ",
"                                                  ",
"                                                  ",
"                                                  ",
"                                                  ",
"                                                  ",
"                                                  ",
"                                                  ",
"                                                  ",
"                                                  ",
"                                                  ",
"                                                  ",
"                                                  ",
"                                                  ",
"                                                  ",
"                                                  "};
