/* XPM */
static char * down_xpm[] = {
"50 50 190 2",
"  	c #40901E",
". 	c #010101",
"+ 	c #0A0503",
"@ 	c #1C100C",
"# 	c #2B1A13",
"$ 	c #352117",
"% 	c #3B231B",
"& 	c #1A0E0C",
"* 	c #643B2B",
"= 	c #744433",
"- 	c #7C4B36",
"; 	c #794737",
"> 	c #6B412F",
", 	c #4D2D22",
"' 	c #22130E",
") 	c #563326",
"! 	c #8C533C",
"~ 	c #A9654A",
"{ 	c #AB6A4E",
"] 	c #A56349",
"^ 	c #5E392A",
"/ 	c #241511",
"( 	c #5C342C",
"_ 	c #935543",
": 	c #965A42",
"< 	c #351D1A",
"[ 	c #512F25",
"} 	c #7C4C3B",
"| 	c #8C5141",
"1 	c #422420",
"2 	c #6B3A34",
"3 	c #542E29",
"4 	c #643631",
"5 	c #663832",
"6 	c #140A0A",
"7 	c #0F0807",
"8 	c #834A3E",
"9 	c #7B443C",
"0 	c #76403A",
"a 	c #733E39",
"b 	c #9C5B48",
"c 	c #3B1F1A",
"d 	c #B36B4D",
"e 	c #41231E",
"f 	c #A76244",
"g 	c #B1674B",
"h 	c #9A5B44",
"i 	c #4B2A1F",
"j 	c #B6775B",
"k 	c #BE7F64",
"l 	c #BF8066",
"m 	c #2B150A",
"n 	c #502E1E",
"o 	c #A67B69",
"p 	c #CAA190",
"q 	c #D0A998",
"r 	c #B18A78",
"s 	c #88594A",
"t 	c #423331",
"u 	c #857578",
"v 	c #CDBDB6",
"w 	c #CFC7C3",
"x 	c #A4968F",
"y 	c #594943",
"z 	c #352119",
"A 	c #592F29",
"B 	c #0E1113",
"C 	c #111215",
"D 	c #0A0B0D",
"E 	c #313235",
"F 	c #747479",
"G 	c #B8B7B8",
"H 	c #88868A",
"I 	c #44403F",
"J 	c #1F1412",
"K 	c #331915",
"L 	c #171A1F",
"M 	c #2D323A",
"N 	c #3A414C",
"O 	c #363D49",
"P 	c #424954",
"Q 	c #636971",
"R 	c #686168",
"S 	c #1A1D22",
"T 	c #5E6A7B",
"U 	c #6D798D",
"V 	c #677588",
"W 	c #535A65",
"X 	c #464A4E",
"Y 	c #453A3B",
"Z 	c #4A2B27",
"` 	c #743F33",
" .	c #697487",
"..	c #7D8CA3",
"+.	c #8B9BB4",
"@.	c #8595AD",
"#.	c #768499",
"$.	c #2B3037",
"%.	c #251A19",
"&.	c #382625",
"*.	c #794945",
"=.	c #4B5462",
"-.	c #657184",
";.	c #7C8A9E",
">.	c #8898B0",
",.	c #8391A5",
"'.	c #636F82",
").	c #454D5B",
"!.	c #393F49",
"~.	c #554C53",
"{.	c #78666C",
"].	c #8E6F6F",
"^.	c #8B655E",
"/.	c #7E5345",
"(.	c #70412A",
"_.	c #070809",
":.	c #22252B",
"<.	c #6A7689",
"[.	c #838493",
"}.	c #969AA9",
"|.	c #9F969F",
"1.	c #070708",
"2.	c #0D0F11",
"3.	c #262A31",
"4.	c #9AA7BC",
"5.	c #AFBACD",
"6.	c #ABB4C3",
"7.	c #7D828C",
"8.	c #42464D",
"9.	c #191A1C",
"0.	c #14161A",
"a.	c #3E4652",
"b.	c #78869C",
"c.	c #8E9AAB",
"d.	c #B2BFD1",
"e.	c #B8C5D7",
"f.	c #5B6472",
"g.	c #343A43",
"h.	c #31353B",
"i.	c #717A89",
"j.	c #A4AEBE",
"k.	c #A6B2C5",
"l.	c #566274",
"m.	c #828DA3",
"n.	c #1E2126",
"o.	c #4C525D",
"p.	c #8B939F",
"q.	c #ADB7C8",
"r.	c #929EB5",
"s.	c #6F7C90",
"t.	c #818A97",
"u.	c #313740",
"v.	c #758196",
"w.	c #2C2426",
"x.	c #767484",
"y.	c #5C5D6A",
"z.	c #654545",
"A.	c #785556",
"B.	c #776269",
"C.	c #6A6C76",
"D.	c #282F38",
"E.	c #525C6B",
"F.	c #796B76",
"G.	c #7A7D8C",
"H.	c #7B4D4B",
"I.	c #79595C",
"J.	c #826D75",
"K.	c #867F8E",
"L.	c #93A4BD",
"M.	c #815C5E",
"N.	c #83676D",
"O.	c #99A8C1",
"P.	c #8B93A4",
"Q.	c #120807",
"R.	c #9B8D96",
"S.	c #917D83",
"T.	c #585761",
"U.	c #A09FAB",
"V.	c #2A2E33",
"W.	c #57606E",
"X.	c #6C737E",
"Y.	c #A0AEC2",
"Z.	c #9CA8B9",
"`.	c #3A3E44",
" +	c #47505D",
".+	c #B1BBCC",
"++	c #7F8792",
"@+	c #1E2228",
"#+	c #53585F",
"$+	c #4B4F54",
"            . . . . . . . . . .                                     . . . . . . . . . .             ",
"            . . . . + + + + + +                                     + + + + + + + . . .             ",
"            . . + @ # $ % $ $ #                                     # $ $ % $ # @ + . .             ",
"            . . & % * = - ; > , ' . . . . . . . . . . . . . . . . ' , > ; - = * % & . .             ",
"            . . ' ) ! ~ { ] ! ^ # + . . . + + + + + + + + + . . + # ^ ! ] { ~ ! ) ' . .             ",
"            . . / ( _ ~ ] : - ) < @ & & & & & & & & & & & & & & @ < ) - : ] ~ _ ( / . .             ",
"            . . ' [ } | ; ^ , , 1 1 1 1 1 1 1 1 1 1 1 1 1 1 1 1 1 1 , , ^ ; | } [ ' . .             ",
"            . . & 1 2 2 , # / < 3 4 2 2 5 4 4 5 5 5 5 4 4 5 2 2 4 3 < / # , 2 2 1 & . .             ",
"            . . & 1 4 ( < 6 7 < 5 8 8 9 0 a 0 0 0 0 0 0 a 0 9 8 8 5 < 7 6 < ( 4 1 & . .             ",
"            . . & 1 4 ( < + 7 % ; : _ 8 0 a 0 0 0 0 0 0 a 0 8 _ : ; % 7 + < ( 4 1 & . .             ",
"            . . & 1 4 ( < 6 & , ! ] b 8 0 a a a a a a a a 0 8 b ] ! , & 6 < ( 4 1 & . .             ",
"              . & c 3 3 % # % * : d ] _ 8 9 0 a a a a 0 9 8 _ ] d : * % # % 3 3 c & .               ",
"                6 / < e , ( > ! f d g ] h | 9 0 a a 0 9 | h ] g d f ! > ( , e < / 6                 ",
"                  + 6 # ) 8 h ~ d d d d ~ : 8 0 a a 0 8 h ~ d d d d ~ h 8 ) # 6 +                   ",
"                  . . @ i - ] j k l j { h ! 9 0 a a 0 9 ! h { j l k j ] - i @ . .                   ",
"                  . . + m n } o p q r s > * 2 a a a a 2 * > s r q p o } n m + . .                   ",
"                  . . . + & t u v w x y z c A 2 a a 2 A c < y x w v u t & + . . .                   ",
"                  B C C D C E F G w H I J K A 0 8 8 0 A K J I H w G F E C D B C B                   ",
"                L M N N O O P Q H H R t < i = _ b b _ = i < t R H H Q P O O N N M L                 ",
"              . S P T U U V T W X Y t Z ( ` _ ] d d ] _ ` ( Z t Y X W T V U U Q P S .               ",
"            . . S P  ...+.@.#.W $.%.&.4 *.s b ] ~ ~ ] b s *.4 &.%.$.W #.@.+... .P S . .             ",
"            . . C M =.-.;.>.,.'.).!.~.{.].^./.= (.(.= /.^.].{.~.!.).'.,.>.;.-.=.M C . .             ",
"            . . _.C :.N T ..@...U <.[.}.|.u y % m m % y u |.}.[.<.U ..@...T N :.C _.. .             ",
"            . . . 1.2.3.=.#.+.@...,.4.5.6.7.8.9.+ + 9.8.7.6.5.4.,...@.+.#.=.3.2.1.. . .             ",
"            . . _.0.3.a.T ;.@.b.<.U c.d.e.c.f.g.3.3.g.f.c.e.d.c.U <.b.@.;.T a.3.0._.. .             ",
"            . . 0.h.W  ...@...T P P i.j.e.k.;.'.l.l.'.;.k.e.j.i.P P T ..@... .W h.0.. .             ",
"            . . S P <.m.+.+.#.=.:.n.o.p.q.k.r...b.b...r.k.q.p.o.n.:.=.#.+.+.m.<.P S . .             ",
"            . . 0.g.l.s.,.>.#.).L D E Q t.t.s.-.'.'.-.s.t.t.Q E D L ).#.>.,.s.l.g.0.. .             ",
"            . . D S M ).V ..#.=.L . C E 8.8.!.u.u.u.u.!.8.8.E C . L =.#...V ).M S D . .             ",
"            . . . 1.D 3.W v.v.W :._.1.D C C C C C C C C C C D 1._.:.W v.v.W 3.D 1.. . .             ",
"            . . + + 6 w.~.F x.y.!.:.B . . 1.0.n.:.:.n.0.1.. . B :.!.y.x.F ~.w.6 + + . .             ",
"            . . 7 & < Z z.A.B.C.f.o.D.D . 0.u.o.E.E.o.u.0.. D D.o.f.C.B.A.z.Z < & 7 . .             ",
"            . . 6 < 3 2 0 *.A.F.G.<.).n.C D.E.v.,.,.v.E.D.C n.).<.G.F.A.*.0 2 3 < 6 . .             ",
"            . . & % 4 9 *.H.I.J.K.G.y.g.M ).U +.L.L.+.U ).M g.y.G.K.J.I.H.*.9 4 % & . .             ",
"            . . & e 2 H.M.N.J.J.J.{.R y.f.V ..+.O.L.+...V f.y.R {.J.J.J.N.M.H.2 e & . .             ",
"            . . & c 4 H.J.[.[.u I.A.B.x.b...@.+.+.+.+.@...b.x.B.A.I.u [.[.J.H.4 c & . .             ",
"              . 6 K 3 z.F.m.P.H N.M.{.x.v...@.+.+.+.+.@...v.x.{.M.N.H P.m.F.z.3 K 6 .               ",
"                Q.' < Y R m.r.}.R.S.{.T.=.T b.+.O.O.+.b.T =.T.{.S.R.}.r.m.R Y < ' Q.                ",
"                  + 6 w.o.v.L.k.6.U.F !.3.a. .@.L.L.@. .a.3.!.F U.6.k.L.v.o.w.6 +                   ",
"                  . . 0.O T m.O.5.k.G.8.V.!.f.v.....v.f.!.V.8.G.k.5.O.m.Q !.0.. .                   ",
"                  . . D n.!.W.;.4.k.c.X.W o.o.=.=.=.=.o.o.W X.c.k.4.;.W.!.n.D . .                   ",
"                  . . . _.0.M W...4.Y.Z.P.C.8.:.L L :.8.C.P.Z.Y.4...W.M 0._.. . .                   ",
"                  . . . 1.B :.P '.,.Y.d.6.7.`.D . . D `.7.6.d.Y.,.'.P :.B 1.. . .                   ",
"                  . . D S M N a. +f.,.q..+++g.1.. . 1.g.++.+q.,.f. +a.N M S D . .                   ",
"                  . . 0.g.E.f.).M g.C.Z.q.++`.1.. . 1.`.++q.Z.C.g.M ).f.E.g.0.. .                   ",
"                    . S ).s.v.=.@+S #+}.6.++!._.. . _.!.++6.}.#+S @+=.v.s.).S .                     ",
"                    . S =.b.;.=.L C $+c.6.[.!._.. . _.!.[.6.c.$+C L =.;.b.=.S .                     ",
"                                                                                                    ",
"                                                                                                    ",
"                                                                                                    "};
