/* XPM */
static char *_a74333091014e2df9bd3fff00a524c4CZD10jP9xyJxtf8R[] = {
/* columns rows colors chars-per-pixel */
"47 50 236 2 ",
"   c #010201",
".  c #0D0602",
"X  c #050B04",
"o  c #050E08",
"O  c #0C0C06",
"+  c #190B03",
"@  c #061104",
"#  c #0A1304",
"$  c #0B1A05",
"%  c #09140B",
"&  c #0C1C0C",
"*  c #04150A",
"=  c #181707",
"-  c #0D1E10",
";  c #181918",
":  c #281606",
">  c #331606",
",  c #3A1A07",
"<  c #220F04",
"1  c #0E2408",
"2  c #112409",
"3  c #132B0B",
"4  c #122806",
"5  c #15320A",
"6  c #13390C",
"7  c #1B3C0C",
"8  c #19350C",
"9  c #0E2111",
"0  c #062515",
"q  c #112513",
"w  c #152B13",
"e  c #142B18",
"r  c #153114",
"t  c #1A3414",
"y  c #1C3B15",
"u  c #15321A",
"i  c #1B3B1C",
"p  c #18371C",
"a  c #0F3F0C",
"s  c #2B2009",
"d  c #36250B",
"f  c #293416",
"g  c #323512",
"h  c #1B3C21",
"j  c #163A20",
"k  c #263A29",
"l  c #451F09",
"z  c #47250B",
"x  c #562A0C",
"c  c #593C13",
"v  c #53340F",
"b  c #622D0D",
"n  c #77360F",
"m  c #773911",
"M  c #69340F",
"N  c #1D420D",
"B  c #1B490E",
"V  c #1D4417",
"C  c #214A0E",
"Z  c #2A400E",
"A  c #224B13",
"S  c #25491B",
"D  c #324518",
"F  c #245311",
"G  c #295C13",
"H  c #275718",
"J  c #345613",
"K  c #2C6414",
"L  c #2D6B16",
"P  c #306D16",
"I  c #326415",
"U  c #337418",
"Y  c #367A19",
"T  c #387E1A",
"R  c #327117",
"E  c #1E4323",
"W  c #1D4C29",
"Q  c #224A25",
"!  c #224A27",
"~  c #2E5C24",
"^  c #26542C",
"/  c #28552C",
"(  c #2A5A29",
")  c #345A2B",
"_  c #2A5C31",
"`  c #245B32",
"'  c #2E632D",
"]  c #2F6929",
"[  c #346B2B",
"{  c #34692B",
"}  c #39732D",
"|  c #3D7A2F",
" . c #37722D",
".. c #2C6232",
"X. c #2B6C36",
"o. c #316D39",
"O. c #336934",
"+. c #3D7C32",
"@. c #34733C",
"#. c #387838",
"$. c #514918",
"%. c #7C591A",
"&. c #6D4818",
"*. c #49792D",
"=. c #477F38",
"-. c #537834",
";. c #636325",
":. c #3D4341",
">. c #377A41",
",. c #397D42",
"<. c #46724D",
"1. c #5F635F",
"2. c #843C11",
"3. c #8A3D12",
"4. c #894414",
"5. c #974714",
"6. c #8A5619",
"7. c #A64D16",
"8. c #A85418",
"9. c #BD5B1A",
"0. c #B55719",
"q. c #99651E",
"w. c #B7691F",
"e. c #937029",
"r. c #AA7222",
"t. c #B37724",
"y. c #C55D1B",
"u. c #CD631D",
"i. c #C6661E",
"p. c #D3641D",
"a. c #D9691E",
"s. c #E46C1F",
"d. c #CB7726",
"f. c #D97824",
"g. c #DC6F20",
"h. c #ED7121",
"j. c #E57924",
"k. c #F47421",
"l. c #FC7B24",
"z. c #F77923",
"x. c #3A821B",
"c. c #3E8B1D",
"v. c #3D873A",
"b. c #41921E",
"n. c #408F1E",
"m. c #449A20",
"M. c #439720",
"N. c #438836",
"B. c #4D9B3D",
"V. c #48943B",
"C. c #578E36",
"Z. c #7C9838",
"A. c #4FA23F",
"S. c #51A33F",
"D. c #79A23A",
"F. c #3D8444",
"G. c #3E8947",
"H. c #3E8A49",
"J. c #398546",
"K. c #3F9145",
"L. c #418E4A",
"P. c #448C44",
"I. c #449245",
"U. c #4B9C44",
"Y. c #43934A",
"T. c #47994A",
"R. c #4A9D4A",
"E. c #479944",
"W. c #4F9B4B",
"Q. c #4DA34C",
"!. c #4DA747",
"~. c #51A543",
"^. c #55AC44",
"/. c #52AB4C",
"(. c #58A949",
"). c #59B345",
"_. c #56B34C",
"`. c #59B64C",
"'. c #5CBC4C",
"]. c #59B546",
"[. c #5AB951",
"{. c #5CA454",
"}. c #7BA646",
"|. c #64B849",
" X c #77B746",
".X c #62B14D",
"XX c #6C9573",
"oX c #6CB06D",
"OX c #619361",
"+X c #5FC14D",
"@X c #5FCA4E",
"#X c #5FC250",
"$X c #61C54D",
"%X c #64C94D",
"&X c #69C24B",
"*X c #65CD50",
"=X c #61C450",
"-X c #68D150",
";X c #70C049",
":X c #B69033",
">X c #B0A93C",
",X c #92A03A",
"<X c #C8892B",
"1X c #D28E2C",
"2X c #D8932C",
"3X c #E68327",
"4X c #FD8426",
"5X c #FD8C29",
"6X c #F58627",
"7X c #EB952D",
"8X c #FD932B",
"9X c #FE9C2E",
"0X c #F2982D",
"qX c #EE9F31",
"wX c #C4B33D",
"eX c #CAB93D",
"rX c #D1B53B",
"tX c #C5A537",
"yX c #EAAB36",
"uX c #FEA431",
"iX c #F3AE36",
"pX c #FEAC33",
"aX c #F5A532",
"sX c #FFB135",
"dX c #F4B237",
"fX c #EEAF36",
"gX c #87AC44",
"hX c #8FB644",
"jX c #A2B841",
"kX c #859840",
"lX c #A2C245",
"zX c #7D9B84",
"xX c #9DBCA2",
"cX c #9EB3A0",
"vX c #A2CBA6",
"bX c #CCDCCE",
/* pixels */
"b.b.b.b.n.n.n.n.b.b.b.M.m.M.x.F $                                             X 7 R b.M.b.b.b.",
"b.b.b.b.n.n.n.n.c.c.c.c.c.c.Y A 2 X   X X X X X X X X X X X X X X X X X X X X $ 7 L x.b.b.b.b.",
"b.b.b.b.b.b.b.b.c.Y P K K K G A t w w t y y y y y y y t w q q q q q q q w w t y A G L Y c.b.b.",
"b.b.b.b.b.b.b.b.x.K N 5 3 5 8 y Q / '  .| +.N.N.=.=.|  .' / ^ ^ ^ / ^ / / { } } ~ A N G Y b.M.",
"b.b.b.b.b.b.b.c.U A 2 @ X @ 9 E ..F.E.~.).].).).).].).~.I.F.,.>.,.,.>.,.F.U.^.B.[ t $ 7 K c.b.",
"b.b.b.b.b.c.T P G y w - q w i / @.Y./.'.$X'.~.B.A.^._._./.Q.T.Y.L.H.H.H.Y./.`.~.{ w X 1 C K R ",
"b.b.b.b.b.T G N y i E ^ ( { } #.F.Y./.'.$XS.| ~ { v.U./._._./.Q.Y.H.H.H.Y.Q.Q.I.( q   X 4 8 7 ",
"b.b.b.b.c.P N 1 2 E O.F.E.~.^.U.I.Y.Q.`.].N.S w p ..P.Q._.`._.Q.Y.H.H.H.H.Y.Y.,./ q X   X X @ ",
"b.c.c.x.U G y q u / F.Q.`.$X$X_.Q.R./.'._.N.S w k <.OXoX{.W.U.U.T.Y.Y.H.H.H.H.>._ p & X       ",
"b.c.Y K A y i E / #.U.`.=X%X%X'._./.`.$X'.V.' / <.zXxXcXOXO.[ N.~./.R.L.H.H.H.,.o._ E q o     ",
"b.c.P N 2 w E O.F.U._.+X$X$X$X$X+X'.$X$X+X!.v.P.XXvXbXxX1.k y  .~.`./.Y.H.H.H.J.J.,.o.Q 9 X   ",
"M.c.K 5 @ - ^ F.Q.`.+X%X%X%X%X%X%X%X%X%X$X_.!.W.oXvXbXcX1.; $ H N.~.Q.T.Y.Y.Y.Y.T.T.P...i - % ",
"M.c.K 3 X q ( E.`.#X$X%X%X%X%X%X%X%X%X%X$X'._._.oXxXxXXX:.O X 2 S [ N.U././././._._./.N...Q h ",
"M.c.K 5 # w { ~.$X%X$X%X%X%X%X%X%X$X%X$X$X$X+X'.[.oXOX<.k O   X $ V  .~.'.+X'.'.+X+X`.Q.F.@.o.",
"b.c.K 5 # w [ ^.%X*X%X$X$X+X'.$X$X$X%X%X%X%X%X$X`./.I.@.Q w & # & y } ~.$X*X$X'._.).~.U.I.H.H.",
"b.c.K 5 # w  .).%X-X%X$X`._./.`.$X%X%X%X@X%X*X%X+X`.!.V.+.{ ~ ~ ~ } V.'.*X=X`./.V.+.} #.F.Y.Y.",
"b.c.K 5 # w  .^.%X-X%X'./.R.R./.'.$X%X%X%X%X%X%X$X+X'._.^.S.B.B.B.~.].$X$X`.Q.P.O.S t Q @.G.Y.",
"b.c.K 5 # w  .^.%X-X%X'.!.Y.Y.Q._.|.&X;X X|.|.).^.^.^.^.^.^.^.^.^.^.).).~.E.F.o.E & % w / @.,.",
"b.c.K 5 # w  .).%X-X%X'.Q.Y.L.T.Q._. XgX,XkXC.*.} } } | | +.+.+.+.| | } [ ' / E q X   & p ! / ",
"b.c.K 5 # w  .).%X-X%X'./.Y.H.H.T.W.kX:X:Xq.$.f w r t t t t t t t t t t r w q - o X   X % 9 q ",
"M.c.K 5 # w [ ~.$X*X$X'./.Y.G.J.J.=.e.d.g.7.x O     X X X X X X X X X X X X X               X ",
"M.c.K 5 X q ' U.`.=X$X'./.Y.F.X._ ) e.d.s.7.l                                                 ",
"m.c.K 5 X 9 / P./.'.$X'./.Y.>.` j f &.i.s.7.z                                                 ",
"c.x.K 8 $ q Q @.I./.'.+X_.T.#.W 9 = b 0.u.7.x +               . . . .           X X X X       ",
"G G F N 6 y V ^ o.E.'.$X'./.v.Q & . , n 5.5.n x > +         . > z z > .         % q w - X     ",
"1 3 6 F G H y r Q +.].*X*X'.E.( &   + > x m 5.5.n >         < x 4.4.x +       X w Q / h &     ",
"O = 8 G U K 7 $ t { S.$X*X$X~. .t X     < b 8.p.8.b +     . l 4.y.9.m :       % p ..o.^ w X   ",
"z v $.J K F N 5 y H | B.).$X'.V.~ t * X . x w.j.d.6.c z d z n 0.s.p.m : X o - u Q / _ Q y 3 4 ",
"r.q.%.$.7 6 B H H A S ~ N.].$X].V. .V * . x w.7X7X<Xr.q.6.5.0.a.k.u.m < X 0 E / ! h p V A G G ",
"aX2Xr.&.s 3 F R L N 2 t { S.+X$X'.S.] w = c r.qXpXaXqX7X3Xj.h.k.k.y.m > % p ..o.! w $ 7 K T c.",
"pX9Xd.4.z d D I G N 3 8 H | B.^.`./.v.( D &.t.0XpXsXpXpX9X5X4Xl.z.a.5.x d D ) ..Q r 3 C R c.M.",
"8X5Xj.9.5.m v Z N B C A A S ~ #.E.Q.E.v.*.;.<X6X9XuXpXpXuX9X8X4Xz.s.y.7.&.c g i V B H P x.b.M.",
"4Xz.z.h.a.7.b : 3 B P P A 3 w Q @.I.Q.!..X,X<X6X5X9XpXpXpXpX9X5Xz.k.h.s.9.m d & 6 K T c.c.b.b.",
"4X4X4X5X4Xi.M + $ B Y x.G 5 3 p / @.I./.|.gX:X1X7XaXpXpXsXpXuX8Xz.l.l.l.a.2.> @ 6 L c.b.b.b.b.",
"9X9X9XuX9Xd.M + # B x.c.Y G A y i Q X.I.(. XgX>XtXyXiXsXsXsXuX8X4Xl.l.l.a.2.> @ 6 L n.M.b.b.b.",
"uXuXpXpXaXt.&.= $ B Y c.c.x.P A 3 q E o.I.(..X XjXrXiXpXsXpXuX5Xz.z.l.z.p.2.> # 6 L c.b.b.b.b.",
"1X1X1X2X<Xr.$.f 3 B K Y T Y K 7 # X q ! @.G.!.|.hXwXiXpXpXuX0Xf.p.a.s.k.p.2.> # 6 L c.b.b.b.b.",
"%.%.6.6.%.&.$.Q E V B C C C 7 1 X   o e Q X.J.~.gXwXiXpX9X8Xf.8.4.4.9.s.p.3.> # 6 L c.b.b.b.b.",
"s s : : s g ) O...E 3 $ $ $ # X       X 9 E X.P.}.>XfXuX8X6Xi.m z x 5.a.p.3.> # 6 L c.b.b.b.b.",
"      X % u _ >.o.E %   X o % % % % X   X u ..P.}.>XfXuX8X6Xi.m z z 5.p.p.3.> # 6 L c.b.b.b.b.",
"    X * u ^ @.J.@.E o   % e h E E p - X X r X.U.gXwXiXpX9X8Xf.8.4.4.9.s.p.3.> # 6 L c.b.b.b.b.",
"    & h _ @.J.J.o.h % o e / o.@.o._ p % X p #.).hXwXiXpXpXuX7Xf.u.u.s.k.p.2.> # 6 L c.b.b.b.b.",
"# & p ' F.L.G.>...i 9 q Q @.G.L.H.>./ u w S C. XlXrXdXpXpXuX0X3Xg.a.h.k.p.2.> # 6 L c.b.b.b.b.",
"S ~ [ N.R.I.#./ E h p Q ..F.Y.T.Y.H.@.' ~ *.D.jXeXfXiXpXuX9X3Xw.7.7.u.h.a.3.> @ 6 L c.b.b.b.b.",
"V.B.~._._.V.( u w h _ o.,.J.L.L.L.L.K.I.B.D.>XrXfXdXpXuX9X6Xi.4.x b 7.a.a.3.> @ 6 L c.b.b.b.b.",
"'.'.$X$X+XB.~ w w ! @.J.J.,.>.>.>.F.E.(. XjXrXiXpXsXpXuX8Xz.y.m , l 2.9.9.m , $ N L c.b.b.b.b.",
"_.`.'.$X$X~.| ~ ( O.F.J.@._ / ! ^ ) -.Z.>XwXyXpXsXsXpXuX5Xz.p.5.M b n 4.4.c g N G Y c.b.b.b.b.",
"R.Q./.`.$X'.S.V.N.P.L.>._ p q - 9 f $.e.1XqXaXpXsXsXpXuX5Xz.s.p.0.5.n x z g J P Y c.n.b.b.b.b.",
"H.L.R._.$X$X$X'._.Q.Y.@.Q - X     + b 0.j.8XuXpXsXsXpX9X5Xz.k.z.h.y.n > = 7 P c.b.b.b.c.c.b.b.",
"F.H.T./.$X%X-X*X=X_.Y.@.E %       + b 0.k.5X9XpXsXsXpX9X5Xz.l.l.l.u.n < @ a U b.M.b.b.b.b.b.b."
};
