/* XPM */
static char * exit_xpm[] = {
"50 50 28 1",
" 	c #40901E",
".	c #508C1E",
"+	c #5D881D",
"@	c #6E811D",
"#	c #747E1D",
"$	c #7A7B1C",
"%	c #7C7A1C",
"&	c #A05E1A",
"*	c #5A891D",
"=	c #84761C",
"-	c #936B1B",
";	c #9E601A",
">	c #737F1D",
",	c #96681B",
"'	c #936A1B",
")	c #8A711C",
"!	c #A05F1A",
"~	c #9B631B",
"{	c #99651B",
"]	c #98661B",
"^	c #8F6D1B",
"/	c #9D611A",
"(	c #9F5F1A",
"_	c #9B641B",
":	c #9D621B",
"<	c #9A651B",
"[	c #9C621B",
"}	c #9F601A",
"                                                  ",
"                                                  ",
"                                                  ",
"                                                  ",
"                                                  ",
"                                                  ",
"                                                  ",
"                                                  ",
"                                                  ",
"                                                  ",
" .+@#$$@+                                         ",
" %&&&&&&&&                                        ",
" %&&&&&&&&+                              *=-;;&&&&",
" >,&&&&&&&@                              '&&&&&&&&",
"  )&&!&&&&$                             +&&&&&&&&&",
"  &&&!&&&&$                             +&&&&&&&&~",
"  &&&&&&&&$                             +&&&&&&&&=",
"  &&&&&&&&$                              &&&&&&&&@",
"  &&&&&&&&$                              &&&&&&&&+",
"  &&&&&&&&$                              &&&&&&&&+",
"  &&&&&&&&$         '&&{]]]]^%          %&&&&&&&& ",
"  &&&&&&&&$         /&&&&&&&&&          ^&&&&&&&&+",
"  &&&&&&&&$         (&&&&&&&&&          ]&&&&&&&&=",
"  &&&&&&&&$         (&&;&&&&&_          ]&&&&&&&&-",
"  &&&&&&&&$         (&&&&&&&&=          ]&&&&&&&&]",
"  &&&&&&&&$         (&&&&&&&&+          ]&&&&&&&&:",
"  &&&&&&&&)         (&&&&&&&&           ]&&&&&&&&&",
"  &&&&&&&&{         (&&&&&&&&           ]&&&&&&&&&",
"  &&&&&&&&&         (&&&&&&&&           ]&&&&&&&&&",
"  &&&&&&&&&         (&&&&&&&&           ]&&&&&&&&&",
"  &&&&&&&&&         (&&&&&&&&=          ]&&&&&&&&&",
"  &&&&&&&&&         (&&&&&&&&-          ]&&&&&&&&&",
"  &&&&&&&&&         (&&&&&&&&{          ]&&&&&&&&&",
"  &&&&(&&&&         (&&&&&&&&]          ]&&&&&&&&&",
"  &&&&!&&&&         (&&&&&&&&]          ]&&&&&&!&&",
"  &&&&!&&&&         (&&&&&&&&]          ]&&&&&&!&&",
"  &&&&&&&&&         (&&{&&&&&]          ^&&&&&&&&&",
"  &&&&&&&&&        +&&&&&&&&&]          ^&&&&&&&&&",
"  &&&&&&&~+    %^]]<&&&&&&&&&!]]]]]]]^% ^&&&&&&&&&",
"  &&&&&&&&&((((&&&&&&&&&&&&&&&&&&&&&&&&&&&&&&&&&&@",
"  &&&&&&&&&&&&&&&&&&&&&&&&&&&&&&&&&&&&&&&&&&&&&&&+",
"  (&&&&&&&&&&&&&&&&&&&&&&&&&&&&&&&&((&&&&&&&&&&&] ",
"  /&&&&&&&&&&&&&&&&&&&&&&&&&&&&&&&&&&&&&&&&&&&&&[ ",
"  <&&&&&&&&&&&&&&&&&&&&&&&&&&&(&&&&&&&&&&&&&&&&&( ",
"  %&&&&&&&&&&&&&&&&&&&&&&&&&&/&&&&&&&&&&&&&&&&&&( ",
"  %&&&&&&&&&&&&&&&&&&&&&&&&&&&&&&&&&&&&&&&&&&&&&( ",
"    &&&&&&&&&&&&&&&&&&&&&&&&&&&&&&&&&&&&&&&&&&&&] ",
"       %<}(&&&&&&&&&&&&&&&&&&&&&&&&&&&&&&&&&&&&&% ",
"           +=-]]][[&&&&&&&&&&&&&&&&&&&&((}:-)@+   ",
"                   +@$$$$$@+                      "};
