/* XPM */
static char *eb1014f815bf4d03faae70cfa615f967JtxQbcpEAjDtqLON[] = {
/* columns rows colors chars-per-pixel */
"50 50 36 1 ",
"  c #053802",
". c #053702",
"X c #043401",
"o c #033001",
"O c #012C00",
"+ c #012900",
"@ c #002700",
"# c #002600",
"$ c #002500",
"% c #012800",
"& c #053602",
"* c #043301",
"= c #012A00",
"- c #002800",
"; c #033201",
": c #022E01",
"> c #012B00",
", c #022B01",
"< c #022B00",
"1 c #022D01",
"2 c #022C01",
"3 c #012B01",
"4 c #012A01",
"5 c #033101",
"6 c #032F01",
"7 c #043501",
"8 c #032E01",
"9 c #022C00",
"0 c #012901",
"q c #033102",
"w c #012700",
"e c #022D00",
"r c #022F01",
"t c #043601",
"y c #022A01",
"u c white",
/* pixels */
" .XoO+@########$$$$########@%%+++%@###############",
".&*oO=-@#######@@@@########@%++=++%###############",
"*;o:O=+%@@####@+>,=-#######@+=<<<=%@##############",
"11222,34+%@#$#%15;:=#$###$#%=2111,+@##############",
"@%+4222,4%@#$#+67&;>@$####@+,16682=@##############",
"$#@42212,+@#$#%:*Xo=@#@%%%+=,2111,+@#@%%%@@#######",
"$#@42112,+@#$#@=1:2%@%=,22,,4====+%@@+=,=+%@######",
"##%4,222,+@####@%%@#@+288882=%@@@@##@=112=%@@#####",
"##@+4,,,4%@##@@###$#@+288882+@######%,881<+%@#####",
"##@%%+++%@@@@-@@#$$#@%=9219=%#####$#%,861<+%@#####",
"###@@@@@@@@@-++-@####@+====+@#######%,181=+%@#####",
"####@####@@-=>>+@####@%%++%%@######@%,182=%@@#####",
"###@@@@#@@-=1::,%#####@@@@@@#####@@+4211,+@@######",
"##@%++-@@-+>:551+#######@@#######@+4,2224%@#######",
"##-=>>+---+>:5o1+################@0,222,0@########",
"##+2::O+--%+,113%################@0,212,0@########",
"$@=:5o:=+-@@%++%@################@0,212,0@########",
"$@4:qo:>+@@########@@@@@@########@+,,2,,+@########",
"$#%,:13+-@########%+====+@#######@%0444+%@########",
"##@%++%@@########@+,1112,%########@@%%%@@#########",
"@@@@#############@+286682+@###############@@@#####",
"==+@#$$##########@+<1881<%##############@%%%%%@@##",
":19+##$##########@%=<<<<+%#############@%04,44+@##",
"5o:=@###@####@@###@%++++%@#############@+,222,4%##",
";5:=@#w++%@@%++%@#@@%%%%@@#############@+,21124%##",
";5:=@@+,,=++>22=-##@@@@@@##############@+,21124%##",
"5o1=@%,11<==err2%######################@+,222,4%##",
":1>+@%2889=>:oo1+################@@%%%@@%44,44+@##",
"==+@@%2889=>:oo1+################@+,,=+%%%%%%%@@##",
"@@@##%,889==e6r2%################%,119=%%@@#@#####",
"#####%=22=++<11>-####@%++++%@####%,881=+@#########",
"#####@%++%@%+==+@###@+>1111>+@#$#%,861=+@#########",
"######@@@@@@@@@@####@=1roor1=@#$#%,882=+@@########",
"######@%%@@#########@+2:66:2+@#$#%=22<+%@#########",
"#####@+==+%@#########%=>22>=%####@%==+%@@#########",
"#####%,11<+%@########@@----@@#####@@@@@###########",
"#####%2889=%@############################@@@@@@###",
"#####+2881=+@@####@@@@@@##########$$$$##@%+00+%@##",
"#####%2889=%@#####@%%+%%%@#############@%4,,,40@##",
"#####%,11<+%@#####%+====+@#######@%++@@@+,222,4%##",
"#####@+==+%@@####@+<9129=%#######%26:>%@+,21124%##",
"######@w%@@######@+28881,+@####$#=oXX6+@%,21224%##",
"###@@@@@@@@@@@@##@+28881,+@####$#=5t7o+@%4,22,0@##",
"##@+=>>>=++%%%%@#@%=,22,=%#######+:551%@@+0440%@##",
"##%>:rr::2,4yy4%@#@%%%%%%@#######@+>>+@##@@%%@@###",
"##+2rooor:2222,0@##################@##############",
"##%=2111112222,0@##################$$#############",
"##@%++++=,2222,0@#################################",
"#######@%4,222,0@#################################",
"#####$$#@0,222,0@#################################"
};
